<svg width="21" height="20" viewBox="0 0 21 20" fill="none" xmlns="http://www.w3.org/2000/svg">
<path d="M18.9333 5.94946V14.2828C18.9333 14.8353 18.7138 15.3652 18.3231 15.7559C17.9324 16.1466 17.4025 16.3661 16.8499 16.3661H4.34993C3.7974 16.3661 3.2675 16.1466 2.8768 15.7559C2.48609 15.3652 2.2666 14.8353 2.2666 14.2828V5.94946" stroke="#FFFDFA" stroke-width="1.4" stroke-linecap="round" stroke-linejoin="round"/>
<path d="M18.9333 5.94954C18.9333 5.39701 18.7138 4.86711 18.3231 4.47641C17.9324 4.0857 17.4025 3.86621 16.8499 3.86621H4.34993C3.7974 3.86621 3.2675 4.0857 2.8768 4.47641C2.48609 4.86711 2.2666 5.39701 2.2666 5.94954L9.49577 10.4634C9.82688 10.6704 10.2095 10.7801 10.5999 10.7801C10.9904 10.7801 11.373 10.6704 11.7041 10.4634L18.9333 5.94954Z" stroke="#FFFDFA" stroke-width="1.4" stroke-linecap="round" stroke-linejoin="round"/>
</svg>
