<svg width="121" height="25" viewBox="0 0 121 25" fill="none" xmlns="http://www.w3.org/2000/svg">
<path d="M8.40334 23.7013H3.88855V12.3263H0.812988V8.62276H3.88843V5.98746C3.88843 2.86462 5.2487 0.624939 9.75127 0.624939C10.7036 0.624939 12.1986 0.818936 12.1986 0.818936V4.25784H10.6283C9.0283 4.25784 8.40358 4.74973 8.40358 6.10964V8.62276H12.1387L11.8061 12.3263H8.40346L8.40334 23.7013ZM18.7626 8.3268C18.6969 8.3268 18.6292 8.32922 18.5622 8.33092C14.3758 8.33092 12.4604 11.5136 12.4604 16.0314C12.4604 21.7227 14.9449 24.0006 18.5949 24.0006C20.6832 24.0006 22.0552 23.1122 22.8891 21.4544V23.7029H27.1833V8.62434H22.8891V10.9432C22.2082 9.4513 20.7978 8.34448 18.7626 8.3268ZM19.8545 11.8898C21.6128 11.8898 22.6682 13.1294 22.6682 15.2378L22.6722 17.3912C22.6722 18.8123 21.8006 20.4748 19.8545 20.4748C16.8627 20.4748 16.9426 17.2098 16.9426 16.1224C16.9426 12.4644 18.5367 11.8898 19.8545 11.8898ZM28.9175 16.1644C28.9175 14.3321 28.8308 8.33661 36.5594 8.33661C39.6618 8.33661 40.9572 9.3336 40.9572 9.3336L39.916 12.5975C39.916 12.5975 38.6223 11.8775 36.9365 11.8775C34.7772 11.8775 33.3995 13.1426 33.3995 15.3684L33.4019 16.9645C33.4019 19.1033 34.7312 20.531 36.9409 20.531C38.4767 20.531 39.8922 19.8042 39.8922 19.8042L40.9308 23C40.9308 23 39.7463 24.0032 36.5811 24.0032C29.2222 24.0032 28.9176 18.6241 28.9176 16.1644H28.9175ZM66.1358 8.33092C70.3223 8.33092 72.2678 11.5136 72.2678 16.0314C72.2678 21.7227 69.7832 24.0006 66.1332 24.0006C64.045 24.0006 62.5013 23.1123 61.6673 21.4544V23.7029L57.4272 23.7012V1.08341L61.9291 0.686577V10.7389C62.5789 8.98024 64.7143 8.33092 66.1359 8.33092H66.1358ZM64.8736 11.8898C63.1153 11.8898 61.9291 13.1294 61.9291 15.2378L61.9249 17.3912C61.9223 18.8123 62.7464 20.4748 64.8736 20.4748C67.8654 20.4748 67.7855 17.2098 67.7855 16.1224C67.7855 12.4644 66.1916 11.8898 64.8736 11.8898ZM48.7685 8.34339C44.0202 8.34339 41.5134 10.9599 41.5134 15.6098V16.4737C41.5134 22.5088 45.0337 24.0626 49.2307 24.0626C53.31 24.0626 55.1565 22.9094 55.1565 22.9094L54.3141 19.8384C54.3141 19.8384 52.1421 20.7724 49.7704 20.7724C47.3118 20.7724 46.2544 20.139 45.9834 17.751H55.5165V15.2873C55.5165 10.2434 52.7031 8.34327 48.7684 8.34327L48.7685 8.34339ZM48.883 11.4185C50.5266 11.4185 51.5916 12.4372 51.5332 14.7997H45.9917C46.0878 12.3132 47.2363 11.4186 48.883 11.4186V11.4185ZM81.2446 8.32268C76.3684 8.32268 73.8013 11.0999 73.8013 16.0769C73.8013 22.9055 78.2264 24.0047 81.2527 24.0047C85.683 24.0047 88.6305 21.594 88.6305 16.1389C88.6305 10.461 85.3164 8.32268 81.2446 8.32268ZM81.1832 11.9022C83.3273 11.9022 84.1769 13.524 84.1769 15.3701V16.9574C84.1769 19.1938 82.9881 20.4873 81.1751 20.4873C79.4794 20.4873 78.2877 19.2773 78.2877 16.9574V15.3701C78.2877 12.8959 79.7058 11.9022 81.1832 11.9022ZM97.5992 8.32268C92.7231 8.32268 90.156 11.0999 90.156 16.0769C90.156 22.9055 94.581 24.0047 97.6074 24.0047C102.038 24.0047 104.985 21.594 104.985 16.1389C104.985 10.461 101.671 8.32268 97.5992 8.32268ZM97.5379 11.9022C99.682 11.9022 100.531 13.524 100.531 15.3701V16.9574C100.531 19.1938 99.3427 20.4873 97.5297 20.4873C95.8341 20.4873 94.6424 19.2773 94.6424 16.9574V15.3701C94.6424 12.8959 96.0604 11.9022 97.5379 11.9022ZM106.686 23.7013V1.08341L111.201 0.686577V15.8465L115.681 8.62276H120.449L115.776 16.1045L120.629 23.7013H115.847L111.201 16.3249V23.7013H106.686Z" fill="#FFFDFA"/>
</svg>
