<svg width="99" height="33" viewBox="0 0 99 33" fill="none" xmlns="http://www.w3.org/2000/svg">
<path d="M12.3555 0.19696H13.226C16.248 0.263359 19.2207 1.49172 21.3558 3.66626C20.5675 4.47964 19.7627 5.25981 18.9908 6.07319C17.7918 4.97762 16.3465 4.13105 14.7698 3.83225C12.4376 3.33427 9.92474 3.78246 7.97029 5.12702C5.83517 6.53798 4.38986 8.92831 4.0778 11.4846C3.7329 14.0078 4.43913 16.6637 6.0651 18.6224C7.62538 20.5314 10.0069 21.7265 12.4705 21.8095C14.7698 21.9423 17.1677 21.2285 18.843 19.6018C20.1569 18.4564 20.7646 16.7135 20.9617 15.0203C18.2353 15.0203 15.5089 15.0369 12.7825 15.0203V11.6008H24.2629C24.8542 15.2693 24.0001 19.4026 21.2409 22.0253C19.4014 23.8845 16.8557 24.98 14.2607 25.1958C11.7478 25.4448 9.15281 24.9634 6.91915 23.7351C4.24204 22.2909 2.10692 19.8508 1.05579 16.9791C0.0703467 14.3397 0.0539228 11.3518 0.973666 8.69591C1.81129 6.27238 3.42084 4.13105 5.49026 2.63709C7.47757 1.15973 9.89189 0.346356 12.3555 0.19696Z" fill="#FFFDFA"/>
<path d="M78.2163 1.06018H81.731V24.7643C80.5649 24.7643 79.3824 24.7809 78.2163 24.7477C78.2327 16.8629 78.2163 8.96154 78.2163 1.06018Z" fill="#FFFDFA"/>
<path d="M32.0806 9.27701C34.2486 8.86203 36.5972 9.32681 38.3874 10.6382C40.0134 11.8001 41.1466 13.6261 41.4916 15.618C41.935 17.9253 41.3766 20.4484 39.8984 22.2743C38.3053 24.3161 35.6939 25.4116 33.1482 25.2456C30.8159 25.1128 28.5494 23.9343 27.1698 22.0087C25.6095 19.884 25.2318 16.9625 26.0858 14.4726C26.9399 11.8001 29.3542 9.75839 32.0806 9.27701ZM32.5733 12.4309C31.6864 12.6633 30.8652 13.1779 30.274 13.9082C28.6808 15.8338 28.7794 18.9711 30.5367 20.7638C31.5386 21.793 33.0496 22.2743 34.4456 21.9921C35.7431 21.7598 36.8764 20.88 37.5005 19.718C38.5845 17.7427 38.2724 15.0204 36.6136 13.4767C35.5461 12.4807 33.9858 12.0657 32.5733 12.4309Z" fill="#FFFDFA"/>
<path d="M49.4885 9.27689C51.9685 8.7955 54.6785 9.49268 56.5344 11.2522C59.5564 13.9912 59.8849 19.1204 57.3063 22.2743C55.7461 24.2663 53.2168 25.3619 50.7203 25.2457C48.3388 25.1793 45.9902 23.9841 44.5777 22.0087C42.9846 19.8342 42.6397 16.8463 43.543 14.3066C44.4463 11.717 46.8114 9.74168 49.4885 9.27689ZM49.9812 12.4308C49.0943 12.6632 48.2731 13.1778 47.6819 13.8916C46.1052 15.7839 46.1709 18.8714 47.8625 20.6808C48.8644 21.7598 50.4247 22.2909 51.87 21.9921C53.1511 21.7432 54.3008 20.88 54.9249 19.718C55.9924 17.7261 55.6804 15.0037 54.0051 13.46C52.9376 12.464 51.3773 12.0656 49.9812 12.4308Z" fill="#FFFDFA"/>
<path d="M64.2554 10.2397C66.1441 9.04459 68.657 8.7126 70.6936 9.74176C71.3341 10.024 71.8597 10.5053 72.3688 10.9867C72.3852 10.5385 72.3688 10.0738 72.3852 9.60897C73.4856 9.62557 74.5861 9.60897 75.7029 9.62557V24.2663C75.6865 26.474 75.1281 28.8146 73.5513 30.4247C71.8268 32.2009 69.1826 32.7487 66.8011 32.3835C64.2554 32.0017 62.0381 30.1259 61.0527 27.7522C62.0381 27.2708 63.0728 26.889 64.0911 26.4408C64.666 27.802 65.8321 28.964 67.2938 29.2296C68.7555 29.4952 70.4472 29.13 71.3998 27.9016C72.4181 26.64 72.4181 24.9137 72.3688 23.3699C71.6133 24.1169 70.7428 24.7809 69.6917 25.0299C67.4088 25.6773 64.8959 24.8805 63.1385 23.3201C61.3647 21.7598 60.3136 19.3529 60.4121 16.9625C60.4614 14.2568 61.9724 11.6507 64.2554 10.2397ZM67.6551 12.3645C66.6533 12.5305 65.7171 13.0949 65.0766 13.875C63.5327 15.7342 63.5327 18.7055 65.093 20.5314C65.9799 21.6104 67.4088 22.208 68.7884 22.0586C70.0859 21.9258 71.2848 21.0958 71.9254 19.9504C73.0094 18.0083 72.8287 15.369 71.367 13.6758C70.4636 12.6301 69.0183 12.1155 67.6551 12.3645Z" fill="#FFFDFA"/>
<path d="M85.9492 11.0862C87.9201 9.2271 90.9585 8.59632 93.4878 9.57569C95.8857 10.4887 97.4132 12.796 98.1851 15.1697C94.6211 16.6637 91.0735 18.141 87.5095 19.635C88.0022 20.5812 88.7577 21.4443 89.776 21.7929C91.2049 22.3075 92.913 22.1249 94.1119 21.1621C94.5882 20.797 94.966 20.3156 95.3273 19.8508C96.2306 20.465 97.1339 21.0626 98.0373 21.6767C96.7562 23.6189 94.6047 24.98 92.2889 25.1958C89.7267 25.5112 87.0003 24.5152 85.3415 22.4901C82.6151 19.303 82.8779 13.958 85.9492 11.0862ZM87.7066 14.1572C87.1482 14.9705 86.9182 15.9665 86.9346 16.9459C89.3161 15.9499 91.6976 14.9539 94.0791 13.9414C93.6849 13.0118 92.7323 12.4474 91.7633 12.298C90.203 12.0158 88.577 12.8624 87.7066 14.1572Z" fill="#FFFDFA"/>
</svg>
