<?xml version="1.0" encoding="UTF-8"?>
<svg id="Calque_1" data-name="Calque 1" xmlns="http://www.w3.org/2000/svg" viewBox="0 0 160 60">
  <defs>
    <style>
      .cls-1 {
        fill: #fff;
      }
    </style>
  </defs>
  <rect x="104.95" y="20.11" width="17.65" height="20.6"/>
  <g>
    <path d="M26.42,35.86l-10.08-3.41v-3.74l10.08-3.41v2.88l-7.15,2.18v.43l7.15,2.18v2.88h0Z"/>
    <path d="M36.81,39.32c-2,0-3.59-.58-4.78-1.74s-1.78-2.85-1.78-5.08v-3.84c0-2.22.59-3.92,1.78-5.08,1.18-1.16,2.78-1.74,4.78-1.74s3.51.55,4.57,1.66c1.06,1.1,1.6,2.62,1.6,4.54v.12h-1.99v-.19c0-1.26-.34-2.3-1.02-3.11s-1.73-1.21-3.16-1.21-2.54.44-3.34,1.31c-.8.87-1.2,2.09-1.2,3.66v3.94c0,1.57.4,2.79,1.2,3.66s1.91,1.31,3.34,1.31,2.48-.4,3.16-1.21,1.02-1.84,1.02-3.11v-.38h1.99v.31c0,1.92-.53,3.43-1.6,4.54-1.06,1.1-2.59,1.66-4.57,1.66v-.02Z"/>
    <path d="M51.64,39.32c-1.18,0-2.23-.25-3.13-.74-.9-.5-1.61-1.2-2.11-2.1s-.76-1.97-.76-3.2v-.31c0-1.22.25-2.28.76-3.19.5-.91,1.21-1.62,2.11-2.11.9-.5,1.95-.74,3.13-.74s2.23.25,3.13.74c.9.5,1.61,1.2,2.11,2.11s.76,1.98.76,3.19v.31c0,1.23-.25,2.3-.76,3.2-.5.9-1.21,1.6-2.11,2.1s-1.95.74-3.13.74ZM51.64,37.61c1.25,0,2.24-.4,2.99-1.19s1.12-1.86,1.12-3.2v-.22c0-1.34-.37-2.41-1.12-3.2s-1.74-1.19-2.99-1.19-2.22.4-2.98,1.19c-.75.79-1.13,1.86-1.13,3.2v.22c0,1.34.38,2.41,1.13,3.2.75.79,1.74,1.19,2.98,1.19Z"/>
    <path d="M66.02,39.32c-1.01,0-1.94-.24-2.78-.72-.85-.48-1.52-1.18-2.02-2.09-.5-.91-.74-1.99-.74-3.24v-.31c0-1.25.25-2.32.74-3.23.5-.9,1.16-1.6,2-2.09s1.77-.73,2.8-.73c.82,0,1.51.11,2.08.32.57.22,1.03.49,1.38.82s.62.68.82,1.04h.34v-6.91h1.9v16.8h-1.85v-1.94h-.34c-.32.59-.82,1.12-1.49,1.58s-1.62.7-2.83.7h-.01ZM66.52,37.64c1.22,0,2.2-.39,2.96-1.16.76-.78,1.14-1.86,1.14-3.25v-.22c0-1.39-.38-2.48-1.14-3.25-.76-.78-1.75-1.16-2.96-1.16s-2.19.39-2.96,1.16c-.78.78-1.16,1.86-1.16,3.25v.22c0,1.39.39,2.48,1.16,3.25.78.78,1.76,1.16,2.96,1.16Z"/>
    <path d="M81.88,39.32c-1.18,0-2.22-.25-3.12-.76-.9-.5-1.59-1.21-2.09-2.12s-.74-1.97-.74-3.17v-.29c0-1.22.25-2.28.74-3.19.5-.91,1.18-1.62,2.06-2.12s1.89-.76,3.02-.76,2.08.24,2.93.71,1.51,1.15,1.99,2.03c.48.88.72,1.91.72,3.1v.86h-9.58c.05,1.26.46,2.25,1.22,2.96.77.71,1.73,1.07,2.88,1.07,1.01,0,1.78-.23,2.33-.7.54-.46.96-1.02,1.25-1.66l1.63.79c-.24.5-.57.99-1,1.49-.42.5-.98.91-1.66,1.25s-1.55.5-2.6.5h.02ZM77.85,32.05h7.63c-.06-1.09-.44-1.94-1.12-2.54-.68-.61-1.55-.91-2.6-.91s-1.95.3-2.64.91-1.11,1.46-1.27,2.54Z"/>
    <path d="M95.68,39.32c-1.01,0-1.94-.24-2.78-.72-.85-.48-1.52-1.18-2.02-2.09-.5-.91-.74-1.99-.74-3.24v-.31c0-1.25.25-2.32.74-3.23.5-.9,1.16-1.6,2-2.09s1.77-.73,2.8-.73c.82,0,1.51.11,2.08.32.57.22,1.03.49,1.38.82s.62.68.82,1.04h.34v-6.91h1.9v16.8h-1.85v-1.94h-.34c-.32.59-.82,1.12-1.49,1.58s-1.62.7-2.83.7h-.01ZM96.19,37.64c1.22,0,2.2-.39,2.96-1.16.76-.78,1.14-1.86,1.14-3.25v-.22c0-1.39-.38-2.48-1.14-3.25-.76-.78-1.75-1.16-2.96-1.16s-2.19.39-2.96,1.16c-.78.78-1.16,1.86-1.16,3.25v.22c0,1.39.39,2.48,1.16,3.25.78.78,1.76,1.16,2.96,1.16Z"/>
    <path class="cls-1" d="M115.74,38.98v-3.43h-8.76v-2.3l7.06-11.06h3.65v11.62h2.88v1.75h-2.88v3.43h-1.95ZM108.92,33.8h6.82v-10.44h-.34l-6.48,10.15v.29Z"/>
    <path d="M122.74,40.71l7.06-20.6h3.02l-7.06,20.6h-3.02Z"/>
    <path d="M132.92,35.86v-2.88l7.15-2.18v-.43l-7.15-2.18v-2.88l10.08,3.41v3.74l-10.08,3.41h0Z"/>
  </g>
</svg>