<svg width="21" height="20" viewBox="0 0 21 20" fill="none" xmlns="http://www.w3.org/2000/svg">
<path d="M17.4608 8.95631C17.4608 14.3351 11.9516 17.6489 10.8067 18.2801C10.7433 18.3151 10.672 18.3334 10.5996 18.3334C10.5272 18.3334 10.4559 18.3151 10.3925 18.2801C9.24673 17.6489 3.73926 14.3351 3.73926 8.95631C3.73926 4.66833 6.31204 1.66675 10.6 1.66675C14.888 1.66675 17.4608 4.66833 17.4608 8.95631Z" stroke="#FFFDFA" stroke-width="1.4" stroke-linecap="round" stroke-linejoin="round"/>
<path d="M7.16943 8.52755C7.16943 9.43734 7.53085 10.3099 8.17417 10.9532C8.81749 11.5965 9.69002 11.9579 10.5998 11.9579C11.5096 11.9579 12.3821 11.5965 13.0255 10.9532C13.6688 10.3099 14.0302 9.43734 14.0302 8.52755C14.0302 7.61775 13.6688 6.74522 13.0255 6.1019C12.3821 5.45858 11.5096 5.09717 10.5998 5.09717C9.69002 5.09717 8.81749 5.45858 8.17417 6.1019C7.53085 6.74522 7.16943 7.61775 7.16943 8.52755V8.52755Z" stroke="#FFFDFA" stroke-width="1.4" stroke-linecap="round" stroke-linejoin="round"/>
</svg>
