<svg width="21" height="20" viewBox="0 0 21 20" fill="none" xmlns="http://www.w3.org/2000/svg">
<path d="M12.8515 17.3851L12.8606 17.3915C13.6477 17.8926 14.5821 18.1102 15.5096 18.0084C16.4371 17.9065 17.302 17.4913 17.9615 16.8313L18.5345 16.2584C18.6615 16.1315 18.7622 15.9808 18.8309 15.815C18.8996 15.6492 18.935 15.4714 18.935 15.2919C18.935 15.1124 18.8996 14.9347 18.8309 14.7688C18.7622 14.603 18.6615 14.4524 18.5345 14.3255L16.1179 11.9107C15.991 11.7838 15.8404 11.683 15.6746 11.6143C15.5087 11.5456 15.331 11.5102 15.1515 11.5102C14.972 11.5102 14.7942 11.5456 14.6284 11.6143C14.4626 11.683 14.3119 11.7838 14.185 11.9107C13.9288 12.1669 13.5814 12.3108 13.2191 12.3108C12.8568 12.3108 12.5093 12.1669 12.2531 11.9107L8.38911 8.04586C8.13297 7.78963 7.98907 7.44217 7.98907 7.07987C7.98907 6.71757 8.13297 6.3701 8.38911 6.11388C8.51608 5.987 8.6168 5.83633 8.68552 5.67051C8.75424 5.50468 8.78961 5.32694 8.78961 5.14744C8.78961 4.96794 8.75424 4.79019 8.68552 4.62437C8.6168 4.45854 8.51608 4.30788 8.38911 4.18099L5.97346 1.76625C5.71723 1.51011 5.36977 1.36621 5.00747 1.36621C4.64517 1.36621 4.2977 1.51011 4.04148 1.76625L3.46763 2.33919C2.80778 2.99883 2.39272 3.86385 2.29103 4.79131C2.18934 5.71878 2.4071 6.65318 2.90835 7.44012L2.91381 7.44923C5.56099 11.3658 8.93444 14.7386 12.8515 17.3851V17.3851Z" stroke="#FFFDFA" stroke-width="1.4" stroke-linecap="round" stroke-linejoin="round"/>
</svg>
