<svg width="124" height="31" viewBox="0 0 124 31" fill="none" xmlns="http://www.w3.org/2000/svg">
<path d="M13.4983 0.409664C11.8975 0.590979 9.49635 1.34414 8.13015 2.09729C4.45936 4.09177 1.97537 7.20203 0.733369 11.3444C0.48497 12.1533 0.195171 14.357 0.208971 15.3891C0.208971 16.2957 0.48497 18.5133 0.650569 19.0433C0.733369 19.2944 0.912769 19.8941 1.06457 20.3544C1.31297 21.1354 2.51356 23.5902 2.72056 23.7575C2.76196 23.7994 2.98276 24.0783 3.18976 24.3991C3.70036 25.1662 5.03896 26.5331 6.04636 27.3141C6.81915 27.9139 8.99955 29.1831 9.27555 29.197C9.34455 29.197 9.35834 28.667 9.31695 27.9696C9.22034 26.4215 9.51015 24.3154 10.1311 22.1675C10.2415 21.8049 10.3243 21.3307 10.3243 21.1215C10.3243 20.9123 10.3795 20.6891 10.4485 20.6194C10.5175 20.5357 10.6417 20.1312 10.7107 19.7128C10.7935 19.2944 10.9315 18.6528 11.0281 18.2902C11.1661 17.7462 11.1523 17.537 10.9591 16.9512C10.6831 16.0586 10.6693 14.6081 10.9453 13.9107C11.5939 12.251 12.3115 11.6233 13.5259 11.6233C14.9887 11.6233 15.6925 12.7391 15.4165 14.6081C15.2923 15.4589 14.9473 16.7978 14.7265 17.2162C14.6713 17.3418 14.5747 17.6904 14.5333 17.9833C14.4781 18.2902 14.3677 18.7226 14.2987 18.9597C14.1055 19.5036 14.4781 20.5636 14.9749 20.9681C15.4441 21.3447 16.4239 21.4562 17.3209 21.247C17.9557 21.1075 18.2179 20.9402 18.8803 20.2986C19.6669 19.5175 20.2603 18.611 20.2603 18.1786C20.2603 18.0531 20.3293 17.8857 20.4121 17.802C20.7985 17.4115 21.0055 14.371 20.7157 13.0878C20.3983 11.6791 19.4185 10.2983 18.1489 9.4894C16.8793 8.6665 14.2573 8.4294 12.6427 8.98729C11.5111 9.37782 10.5037 10.0333 9.85514 10.8004C9.27555 11.4839 8.66835 12.5997 8.66835 12.9902C8.66835 13.1297 8.59935 13.311 8.51655 13.3947C8.43375 13.4783 8.33715 14.0083 8.29575 14.5802C8.22675 15.431 8.28195 15.8215 8.53035 16.6583C8.69595 17.2302 8.99955 17.8997 9.17895 18.1507C9.55154 18.6528 9.55155 18.8481 9.20655 20.187C9.10995 20.5497 8.94435 20.8844 8.84775 20.9262C7.97835 21.261 6.21196 19.1549 5.61856 17.0628C5.39776 16.2678 5.38396 13.4365 5.60476 12.5997C5.70136 12.251 5.86696 11.7768 5.97736 11.5257C6.08775 11.2886 6.18435 11.0515 6.18435 10.9957C6.18435 10.9399 6.46035 10.4657 6.80535 9.94966C8.59935 7.21598 11.5111 5.76545 15.1957 5.76545C16.0375 5.76545 16.9069 5.82124 17.1415 5.89098C19.0459 6.49071 19.5565 6.68598 20.3017 7.13229C21.7507 8.01098 22.7995 9.21045 23.8483 11.2189C23.9173 11.3444 24.0139 11.6791 24.0553 11.9581C24.1105 12.237 24.2071 12.502 24.2761 12.5439C24.3451 12.5857 24.4003 13.4923 24.4003 14.5662C24.4003 16.5049 24.2623 17.286 23.6827 18.876C23.0341 20.6194 21.3643 22.5441 19.8463 23.2973C18.9769 23.7157 17.3485 24.176 16.6999 24.176C15.8305 24.176 14.1193 23.4507 13.6501 22.8649C13.4293 22.5999 13.2223 22.6975 13.2223 23.0741C13.2223 23.2136 13.1671 23.4507 13.0843 23.5902C13.0153 23.7157 12.8911 24.1062 12.8221 24.4549C12.4219 26.296 11.8561 27.7883 10.9867 29.1831C10.7245 29.6154 10.9453 29.8665 11.6629 29.9641C12.0217 30.0199 12.5047 30.1175 12.7255 30.1873C13.2775 30.3686 16.2721 30.3407 17.2795 30.1594C18.1903 29.992 19.6669 29.5736 20.3293 29.2946C24.4969 27.5652 27.6571 24.0504 29.0233 19.5733C29.7547 17.1883 29.7961 14.4128 29.1337 11.6233C28.9129 10.7168 28.8439 10.5076 28.2505 9.11282C27.3949 7.0765 25.4629 4.6915 23.5033 3.22703C21.8197 1.97177 20.1637 1.24651 17.5831 0.618874C16.8655 0.451506 14.3125 0.312032 13.4983 0.409664ZM50.3028 5.44466C49.7646 5.52835 48.909 6.42098 48.6882 7.11834C48.4536 7.88545 48.6882 8.70834 49.3506 9.34992C50.8134 10.7865 53.3526 9.43361 53.0352 7.3694C52.842 6.05834 51.6552 5.2215 50.3028 5.44466ZM35.2609 6.26756C35.1367 6.40703 35.1367 23.2275 35.2747 23.4228C35.3437 23.5344 35.9371 23.5762 37.0963 23.5623L38.8213 23.5483L38.8903 20.717C38.9455 18.4157 39.0007 17.8578 39.1663 17.7602C39.2767 17.6904 40.2151 17.6207 41.2501 17.6207C43.5133 17.6207 44.4655 17.4533 45.5004 16.8954C46.8528 16.1562 47.6394 15.0962 48.0672 13.4086C48.3294 12.3486 48.3294 11.5815 48.0534 10.4936C47.805 9.51729 47.6946 9.28018 47.1012 8.48519C46.3698 7.49492 45.6246 6.95098 44.4103 6.51861C43.7341 6.29545 43.1683 6.25361 39.5113 6.21177C37.2343 6.18387 35.3161 6.21177 35.2609 6.26756ZM42.8371 9.74045C43.7617 10.0333 44.217 10.4518 44.424 11.2049C44.6862 12.1952 44.493 13.1157 43.9135 13.6736C43.2787 14.2733 42.7129 14.4128 40.8637 14.4128C39.6493 14.4128 39.2767 14.371 39.1111 14.1897C38.9317 14.0223 38.8903 13.6178 38.8903 12.0278C38.8903 9.51729 38.8765 9.53124 40.7947 9.53124C41.6227 9.53124 42.4231 9.61492 42.8371 9.74045ZM67.0422 8.91755C67.0422 9.87992 66.9732 10.7865 66.9042 10.9399C66.8076 11.1212 66.6144 11.2049 66.2832 11.2049C66.0348 11.2049 65.8002 11.2607 65.7726 11.3444C65.7588 11.4141 65.7588 11.9023 65.8002 12.4183C65.8692 13.3389 65.883 13.3528 66.297 13.4504C66.5316 13.4923 66.7938 13.576 66.8766 13.6318C67.0008 13.7015 67.0422 14.8033 67.0422 17.5928C67.0422 21.3447 67.056 21.4841 67.3596 22.042C67.9944 23.2275 68.988 23.646 71.0028 23.5902L72.3552 23.5483L72.3966 22.1954L72.438 20.8286H72.093C71.5686 20.8286 70.7958 20.4102 70.713 20.0754C70.6716 19.9081 70.6302 18.4297 70.6302 16.7699C70.6302 14.4826 70.6716 13.7154 70.8096 13.6039C70.9062 13.5202 71.2926 13.4365 71.6652 13.4086L72.3552 13.3668V11.2747L71.5962 11.2328C71.1822 11.2049 70.7958 11.1073 70.7406 11.0236C70.6854 10.926 70.6302 10.0194 70.6302 9.00124V7.16019H67.0422V8.91755ZM118.337 7.24387C118.281 7.29966 118.24 8.17834 118.24 9.1965C118.24 11.177 118.226 11.2049 117.467 11.2049C117.122 11.2049 117.122 11.2189 117.164 12.2789C117.205 13.3389 117.219 13.3668 117.578 13.4086C117.771 13.4365 118.005 13.5341 118.074 13.6178C118.157 13.7154 118.24 15.4031 118.281 17.551C118.323 19.6152 118.392 21.4981 118.447 21.7212C118.613 22.3349 119.468 23.116 120.282 23.381C121.193 23.6878 123.512 23.7157 123.746 23.4228C123.857 23.2973 123.898 22.7952 123.87 22.0699L123.829 20.8983L123.346 20.8147C122.822 20.731 122.228 20.452 122.076 20.2149C122.021 20.1312 121.966 18.611 121.966 16.8397C121.966 13.1994 121.883 13.4365 123.084 13.4365C123.87 13.4365 123.939 13.297 123.87 12.0278L123.829 11.2747L122.932 11.2049L122.035 11.1352L121.966 9.18255L121.897 7.22992L120.158 7.18808C119.206 7.17413 118.392 7.20203 118.337 7.24387ZM60.2112 10.8702C59.535 11.0515 58.7484 11.5118 58.224 12.0557C57.5892 12.7252 57.4236 12.6833 57.3546 11.8326L57.3132 11.2747H53.8632V23.5483L55.602 23.5762C57.3132 23.6181 57.3546 23.6041 57.4374 23.2973C57.4788 23.1299 57.5202 21.3586 57.5202 19.3502C57.5202 15.3752 57.534 15.2636 58.3482 14.4826C58.707 14.1339 58.9002 14.0641 59.673 14.0223L60.57 13.9665L61.1082 14.5383C61.743 15.2078 61.674 14.5662 61.7292 20.3404C61.743 21.8747 61.7568 23.2275 61.7706 23.367C61.7982 23.5623 62.019 23.5902 63.5646 23.5623L65.3172 23.5483V13.7573L64.917 12.9623C64.227 11.5815 63.1644 10.926 61.536 10.8423C60.9564 10.8283 60.363 10.8283 60.2112 10.8702ZM77.4612 10.8702C75.9708 11.2747 75.2532 11.6791 74.3286 12.5997C73.0866 13.8689 72.5208 15.3473 72.5208 17.3418C72.5346 20.8425 74.7012 23.4368 77.9028 23.7436C80.6352 24.0086 82.7465 23.1997 84.0989 21.3725C84.2921 21.1075 84.7061 20.2568 84.7061 20.1033C84.7061 20.0475 83.9057 19.9918 82.9398 19.9918H81.1734L80.7594 20.4241C80.2764 20.9262 79.6002 21.247 78.9792 21.247C78.3582 21.247 77.406 20.8007 76.9644 20.3265C76.6332 19.9499 76.1502 18.862 76.1502 18.4854C76.1502 18.3599 77.1576 18.3181 80.4006 18.3181C82.7327 18.3181 84.7062 18.2623 84.8027 18.2065C85.0098 18.067 84.8165 15.8494 84.5129 15.0404C83.8919 13.3528 82.7189 11.9302 81.5322 11.4281C81.1872 11.2886 80.7869 11.1073 80.6489 11.0376C80.3592 10.8841 77.9028 10.7586 77.4612 10.8702ZM80.1522 13.9247C80.6904 14.3012 81.1595 15.1939 81.0905 15.696C81.0491 16.0168 81.0216 16.0168 78.6894 16.0586C75.9984 16.1004 75.9846 16.0865 76.4124 15.0823C76.716 14.3849 77.3232 13.7573 77.889 13.576C78.5376 13.3668 79.5864 13.5341 80.1522 13.9247ZM97.8851 10.8702C96.2843 11.3026 95.1665 12.0139 94.2971 13.1157C93.9521 13.562 93.6761 13.9804 93.6761 14.0641C93.6761 14.1339 93.5795 14.3849 93.4553 14.622C93.3311 14.8452 93.1517 15.5425 93.0551 16.1702C92.5721 19.1549 93.8969 21.9444 96.3809 23.1997L97.3331 23.6878H99.3341C101.404 23.6878 101.583 23.646 102.853 22.9625C103.778 22.4604 105.296 20.5078 105.061 20.1173C105.006 20.0475 104.219 19.9918 103.295 19.9918H101.597L101.252 20.3962C99.8723 21.9723 97.2917 21.1633 96.7397 18.9736C96.6569 18.6807 96.6569 18.4297 96.7259 18.3739C96.7949 18.332 98.7683 18.3041 101.128 18.3181C104.495 18.3181 105.406 18.2902 105.42 18.1507C105.544 16.4073 104.716 13.827 103.681 12.7112C103.101 12.0836 102.094 11.3862 101.597 11.2607C101.377 11.2049 101.128 11.1073 101.032 11.0376C100.838 10.8841 98.3129 10.7586 97.8851 10.8702ZM100.038 13.5899C100.659 13.8131 101.376 14.5941 101.487 15.1939C101.652 16.1004 101.666 16.1004 99.0995 16.0586C96.7949 16.0168 96.7811 16.0168 96.7397 15.696C96.6845 15.3054 97.1675 14.3431 97.5815 13.9804C98.1749 13.4783 99.2099 13.311 100.038 13.5899ZM109.891 10.8702C107.062 11.5536 106.041 12.5718 106.027 14.6918C106.027 16.9791 107.159 17.9415 110.512 18.5412C112.817 18.9457 113.479 19.3083 113.451 20.187C113.438 20.8147 113.01 21.2191 112.154 21.4004C111.078 21.6375 110.236 21.3725 109.56 20.6054L109.022 19.9918H107.352C105.999 19.9918 105.682 20.0336 105.682 20.187C105.682 20.5915 106.234 21.6515 106.689 22.1815C107.117 22.6418 107.448 22.8649 108.746 23.4925C108.87 23.5623 109.546 23.6739 110.222 23.7575C111.478 23.911 113.658 23.7715 114.21 23.4925C114.335 23.4368 114.693 23.2554 114.997 23.116C115.784 22.7394 116.529 21.8886 116.805 21.0797C117.108 20.1591 117.026 18.876 116.598 17.9833C116.087 16.9373 114.735 16.1841 112.72 15.8215C110.126 15.3612 110.084 15.3473 109.67 14.9428C109.173 14.4268 109.173 14.2454 109.67 13.6876C110.07 13.2412 110.098 13.2273 111.202 13.2273C112.306 13.2273 112.334 13.2412 112.734 13.6876C112.955 13.9386 113.134 14.2315 113.134 14.3431C113.134 14.5104 113.424 14.5523 114.859 14.5523C116.763 14.5523 116.708 14.5941 116.377 13.6039C115.77 11.8465 114.21 10.9539 111.616 10.8562C110.816 10.8283 110.043 10.8283 109.891 10.8702ZM91.5371 11.1631C90.9299 11.3723 90.0881 12.0697 89.8259 12.5718C89.5637 13.0739 89.3291 12.8647 89.2601 12.0278L89.1911 11.2747H85.7411L85.6997 17.1325C85.6859 20.3544 85.6997 23.1299 85.7411 23.3112C85.8101 23.6181 85.8515 23.6181 87.5075 23.5902C88.4597 23.5762 89.2325 23.4925 89.2877 23.4089C89.3429 23.3391 89.3981 21.8607 89.3981 20.1312C89.3981 17.3975 89.4257 16.9094 89.6603 16.2957C90.1433 15.0265 91.1783 14.2733 92.4755 14.2733C92.8343 14.2733 92.9861 14.2036 93.0275 14.0223C93.1241 13.6178 93.1379 11.7349 93.0551 11.3165C92.9723 10.9818 92.9033 10.926 92.5307 10.9399C92.2823 10.9539 91.8407 11.0515 91.5371 11.1631ZM49.0332 11.3723C48.9918 11.4699 48.978 14.2176 48.9918 17.4812L49.0332 23.4089L50.6754 23.4786C51.669 23.5204 52.3866 23.4925 52.497 23.4089C52.6488 23.2973 52.6902 22.1118 52.6902 17.3697C52.704 14.1339 52.6626 11.4141 52.6212 11.3444C52.4832 11.1352 49.1022 11.1631 49.0332 11.3723Z" fill="#FFFDFA"/>
</svg>
