<svg width="96" height="33" viewBox="0 0 96 33" fill="none" xmlns="http://www.w3.org/2000/svg">
<path d="M91.3212 6.3472H87.156V0.515869H78.01L73.8039 6.3472H66.3298L63.8307 8.84635V6.3472H57.9993V0.515869H39.6723V6.3472H13.8895L9.68257 0.515869H0.519043V20.509L12.1817 32.1717H23.8444V28.8395L27.1766 32.1717H49.6689V28.8395L53.001 32.1717H63.8307V28.8395L67.1629 32.1717H87.989L95.4865 24.6743V10.5124L91.3212 6.3472ZM14.6809 14.6777H8.84952V16.3438H14.6809V23.0082H5.51733L2.18514 19.676V2.18196H8.84952V8.0133H14.6809V14.6777ZM39.6723 23.0082H19.6791L16.3469 19.676V8.0133H23.0113V16.3438H24.6774V8.0133H31.3418V16.3438H33.0079V8.0133H39.6723V23.0082ZM48.0028 23.0082H41.3384V8.0133H48.0028V23.0082ZM48.0028 6.3472H41.3384V2.18196H48.0028V6.3472ZM62.1646 14.6777H56.3332V16.3438H62.1646V23.0082H53.001L49.6689 19.676V2.18196H56.3332V8.0133H62.1646V14.6777ZM77.1594 14.6777H70.495V16.3438H77.1594V23.0082H67.1629L63.8307 19.676V11.3455L67.1629 8.0133H77.1594V14.6777ZM93.8204 23.0082H87.156V14.6777H85.4899V23.0082H78.8255V2.18196H85.4899V8.0133H90.4882L93.8204 11.3455V23.0082Z" fill="#FFFDFA"/>
</svg>
