<svg width="119" height="31" viewBox="0 0 119 31" fill="none" xmlns="http://www.w3.org/2000/svg">
<path d="M38.2768 12.1051C38.2768 9.98503 36.2151 7.73332 32.6475 7.73332C28.6412 7.73332 24.2402 10.6722 23.5676 16.5354C22.8804 22.4571 26.565 25.089 30.2788 25.089C33.9927 25.089 35.9373 23.6415 37.9258 21.7114C36.2151 19.5621 34.0073 20.5563 33.5833 20.7757C33.1154 21.0096 32.5159 21.3313 31.2877 21.3313C29.8548 21.3313 28.3927 20.6879 28.3927 18.0122C37.5749 17.1057 38.2768 14.2253 38.2768 12.1051ZM33.7295 12.4561C33.671 13.114 33.4078 14.2399 28.7582 14.8686C29.7378 11.3887 31.6094 11.1255 32.472 11.1255C33.2762 11.1255 33.788 11.7542 33.7295 12.4561ZM18.1723 13.0263C18.1723 13.0263 16.1984 19.2258 16.0375 19.7375C15.979 19.2112 14.5315 8.08424 14.5315 8.08424C11.1686 8.08424 9.37013 10.4822 8.41974 13.0117C8.41974 13.0117 6.02182 19.2258 5.81712 19.7522C5.8025 19.2697 5.45158 13.0848 5.45158 13.0848C5.24688 9.98503 2.41032 8.09886 0.114746 8.09886L2.89282 24.9574C6.4166 24.9428 8.31739 22.5595 9.31165 20.03C9.31165 20.03 11.4318 14.5469 11.5195 14.2984C11.5341 14.5323 13.0401 24.9574 13.0401 24.9574C16.5785 24.9574 18.4793 22.7203 19.5028 20.2785L24.4595 8.09886C20.965 8.09886 19.1226 10.4822 18.1723 13.0263ZM51.2606 7.70408C49.082 7.70408 47.4152 8.88842 46.0115 10.6284V10.6138L47.269 0.481079C44.3739 0.481079 42.0199 2.99597 41.5666 6.73906L39.3734 24.8258C41.0402 24.8258 42.8094 24.3433 43.7598 23.1151C44.6079 24.2117 45.8799 25.089 47.7661 25.089C52.6497 25.089 55.998 19.4159 55.998 14.0937C55.9687 9.23933 53.6147 7.70408 51.2606 7.70408ZM50.8074 16.4039C50.2956 19.372 48.6434 21.3898 47.0496 21.3898C45.4413 21.3898 44.7541 20.6733 44.7541 20.6733C45.0611 18.0707 45.2512 16.477 45.8361 15.1025C46.4209 13.7281 47.81 11.5349 49.2575 11.5349C50.6758 11.5349 51.3191 13.4211 50.8074 16.4039ZM68.1923 8.09886H64.7855L64.8001 7.9234C65.034 5.70094 65.5604 4.53122 67.3004 4.34115C68.4847 4.22417 69.0111 3.61007 69.1427 2.93748C69.245 2.41111 69.5667 0.583429 69.5667 0.583429C62.7238 0.539565 60.5745 3.4931 60.0189 7.99651L60.0043 8.09886H59.9311C58.8199 8.09886 57.5917 9.35631 57.387 10.95L57.3139 11.5349H59.5949L57.6794 27.3553L57.0946 30.1919C57.1677 30.1919 57.2554 30.2065 57.3285 30.2065C60.5306 30.0895 62.5776 27.56 63.0309 23.89L64.5223 11.5349H65.5897C66.6424 11.5349 67.8706 10.4822 68.0899 8.72758L68.1923 8.09886ZM85.9135 7.80643C81.9803 7.80643 78.2665 10.7015 77.126 15.2488C75.9855 19.796 77.7108 25.1767 83.5009 25.1767C89.2764 25.1767 92.6101 19.5767 92.6101 14.9125C92.6101 10.2775 89.4665 7.80643 85.9135 7.80643ZM87.5072 16.2576C87.3025 18.3193 86.396 21.4483 83.9103 21.4483C81.4101 21.4483 81.761 17.7929 82.0096 16.0529C82.2727 14.196 83.3109 11.5495 85.5479 11.5495C87.5511 11.5495 87.7412 13.9328 87.5072 16.2576ZM112.042 13.0263C112.042 13.0263 110.068 19.2258 109.907 19.7375C109.849 19.2112 108.401 8.08424 108.401 8.08424C105.038 8.08424 103.24 10.4822 102.29 13.0117C102.29 13.0117 99.8916 19.2258 99.6869 19.7522C99.6723 19.2697 99.3214 13.0848 99.3214 13.0848C99.1167 9.98503 96.2801 8.09886 93.9845 8.09886L96.748 24.9574C100.272 24.9428 102.173 22.5595 103.167 20.03C103.167 20.03 105.287 14.5469 105.36 14.2984C105.389 14.5323 106.881 24.9574 106.881 24.9574C110.419 24.9574 112.32 22.7203 113.343 20.2785L118.3 8.09886C114.82 8.09886 112.978 10.4822 112.042 13.0263ZM71.409 0.583429L68.5432 23.7L67.9583 26.5511C68.0314 26.5511 68.1192 26.5658 68.1923 26.5658C71.2774 26.5219 73.4706 23.8169 73.88 20.4101L75.5322 7.14847C76.0294 3.09832 73.6168 0.583429 71.409 0.583429Z" fill="#FFFDFA"/>
</svg>
