<svg width="111" height="25" viewBox="0 0 111 25" fill="none" xmlns="http://www.w3.org/2000/svg">
<path d="M18.6575 24.6303L11.4279 24.4966C9.087 24.4501 6.7404 24.5431 4.44556 24.0607C0.954417 23.3399 0.707103 19.8056 0.448287 16.8411C0.0916956 12.6732 0.229731 8.42981 0.902654 4.29684C1.28225 1.9775 2.77763 0.59403 5.08973 0.442895C12.8945 -0.103517 20.751 -0.0395748 28.5385 0.216192C29.361 0.239444 30.1892 0.367327 31.0001 0.51265C35.0031 1.22182 35.1009 5.2269 35.3597 8.59838C35.6186 12.0047 35.5093 15.4285 35.0146 18.8116C34.6178 21.6134 33.8586 23.9618 30.655 24.1886C26.6405 24.485 22.718 24.7233 18.692 24.6478C18.692 24.6303 18.669 24.6303 18.6575 24.6303ZM14.4071 17.5386C17.4324 15.7831 20.4002 14.0567 23.4082 12.3128C20.3771 10.5573 17.4151 8.83089 14.4071 7.08703V17.5386Z" fill="#FFFDFA"/>
<path d="M93.3484 21.4449C93.2104 22.0146 93.0896 22.4622 92.9688 22.9389H90.1391V0.878723H93.4405V9.01685C93.613 8.79596 93.6993 8.70295 93.7741 8.60413C94.3377 7.81938 95.0681 7.30784 96.0114 7.1102C97.5125 6.81374 98.7951 7.48223 99.2495 8.94128C99.5428 9.8481 99.7326 10.8189 99.7556 11.7664C99.8016 14.202 99.7671 16.6318 99.6808 19.0674C99.6463 19.8115 99.422 20.573 99.1402 21.2705C98.2142 23.5725 95.1889 23.9212 93.6878 21.9274C93.5958 21.8053 93.5095 21.6716 93.3484 21.4449ZM93.5095 15.3762V19.4104C93.5095 20.0673 93.8546 20.4684 94.5045 20.6195C95.1429 20.7706 95.6605 20.5207 95.9193 19.9219C96.0286 19.672 96.1379 19.4104 96.1437 19.1488C96.2069 16.6841 96.2644 14.2194 96.2817 11.7489C96.2817 11.2897 96.1724 10.8131 96.0344 10.3655C95.7756 9.55745 95.0624 9.31912 94.3607 9.78997C93.8316 10.1504 93.5095 10.6619 93.5095 11.342V15.3762ZM84.5372 7.4241H87.9938V22.9505H85.2964C85.1986 22.3634 85.1008 21.7588 84.9858 21.0497C84.8018 21.3229 84.6925 21.4972 84.5775 21.6716C83.6802 22.9795 82.4092 23.4271 80.908 23.1888C79.6254 22.9795 78.8548 21.9797 78.6822 20.3405C78.6304 19.8522 78.6074 19.3581 78.6074 18.8698C78.5959 15.2367 78.6074 11.592 78.6074 7.95889V7.41248H82.1043V8.04609C82.1043 11.5571 82.0928 15.0623 82.1158 18.5733C82.1158 19.0732 82.1676 19.5906 82.2539 20.0905C82.3516 20.6021 82.7197 20.7881 83.2144 20.7532C84.0138 20.6892 84.566 20.0905 84.566 19.2883V8.11003C84.5372 7.88333 84.5372 7.67406 84.5372 7.4241ZM60.7376 7.41248H64.2115V8.06934C64.2115 11.5629 64.2 15.0507 64.223 18.5326C64.223 19.0326 64.269 19.5499 64.3726 20.0382C64.5048 20.6137 64.8384 20.7997 65.4078 20.7241C66.1958 20.6137 66.6731 20.0614 66.6789 19.2534V8.13328V7.43573H70.1355V22.9505H67.4496C67.3518 22.375 67.254 21.7821 67.1275 21.0322C66.955 21.2938 66.8572 21.4449 66.7594 21.6019C65.8622 22.933 64.6026 23.4213 63.067 23.183C61.8362 22.997 61.0827 22.0785 60.8527 20.573C60.7894 20.1021 60.7434 19.6371 60.7434 19.1663C60.7319 15.3937 60.7319 11.6036 60.7319 7.83101L60.7376 7.41248ZM58.9547 15.7017C58.9432 16.2249 58.9087 16.7481 58.8799 17.2712C58.7476 18.8407 58.6844 21.0671 57.4305 22.2122C56.6311 22.933 55.6188 23.1946 54.5721 23.2295C54.1062 23.2411 53.6346 23.2411 53.1687 23.1772C50.9659 22.84 49.9421 21.8576 49.574 19.4104C49.1542 16.5853 49.1197 13.7137 49.62 10.8886C50.1377 7.96471 51.9206 6.93 54.6928 7.12183C57.281 7.30784 58.437 9.02266 58.7419 11.4641C58.9087 12.865 58.9892 14.2834 58.9547 15.7017ZM55.4348 15.1669C55.4348 14.1729 55.4578 13.1731 55.4233 12.1791C55.4003 11.6036 55.3255 11.0223 55.2047 10.4526C55.0667 9.79578 54.6526 9.48188 54.1349 9.49351C53.6288 9.50514 53.2722 9.81904 53.0882 10.4294C53.0249 10.6561 52.9559 10.8886 52.9559 11.1153C52.9559 12.6732 52.9444 14.2369 52.9329 15.7947C52.9214 17.248 52.7373 18.771 53.1917 20.1603C53.3297 20.5846 53.6863 20.8171 54.1522 20.8171C54.6066 20.8171 54.9056 20.5904 55.0724 20.1835C55.2047 19.8696 55.3197 19.5267 55.3197 19.1895C55.36 17.8525 55.4348 16.5097 55.4348 15.1669ZM44.5012 12.243C44.8061 10.7375 45.0936 9.26681 45.41 7.79032C45.8068 5.91274 46.2497 4.03515 46.6408 2.15176C46.7386 1.69254 46.9226 1.58209 47.354 1.59372C48.28 1.62859 49.2232 1.60534 50.2124 1.60534C49.8904 2.80281 49.574 3.94215 49.2635 5.06405C48.28 8.58669 47.2965 12.121 46.3245 15.6552C46.2497 15.9284 46.2152 16.2249 46.2152 16.5156C46.2037 18.4454 46.2152 20.3695 46.2152 22.2994V22.9272H42.8391C42.8276 22.7528 42.8046 22.5785 42.8046 22.4041C42.8046 21.3112 42.7183 20.2126 42.8161 19.1314C43.0634 16.533 42.2467 14.1439 41.5852 11.7257C40.711 8.52856 39.8253 5.31981 38.9511 2.12269C38.9051 1.97156 38.8878 1.80879 38.8418 1.62278H42.2869C43.0116 5.15124 43.742 8.6797 44.5012 12.243ZM110.557 16.2947H104.736C104.8 17.4747 104.823 18.5966 104.943 19.7069C105.03 20.48 105.45 20.8113 106.111 20.8171C106.801 20.8288 107.204 20.48 107.365 19.7127C107.417 19.4627 107.451 19.2128 107.474 18.957C107.497 18.7303 107.509 18.4861 107.526 18.1606C108.509 18.2129 109.47 18.2711 110.419 18.3118C110.971 19.9684 109.976 22.096 108.302 22.7528C106.985 23.276 105.634 23.276 104.288 22.8749C103.293 22.5785 102.551 21.939 102.217 20.9566C101.907 20.0382 101.613 19.0791 101.55 18.1199C101.377 15.7541 101.314 13.3649 101.671 10.9933C101.734 10.598 101.843 10.2201 101.964 9.83648C102.447 8.25535 103.5 7.28459 105.127 7.12183C106.013 7.03463 106.928 7.06951 107.802 7.22065C109.217 7.47061 109.97 8.4995 110.298 9.8481C110.448 10.4817 110.557 11.1328 110.58 11.778C110.586 13.2603 110.557 14.731 110.557 16.2947ZM107.25 14.2543C107.25 13.0859 107.261 11.9873 107.238 10.8828C107.238 10.6212 107.14 10.348 107.043 10.0981C106.847 9.60977 106.439 9.47607 105.95 9.47607C105.461 9.47607 105.15 9.72603 105.03 10.1736C104.662 11.5164 104.782 12.8883 104.794 14.2659C105.674 14.2543 106.473 14.2543 107.25 14.2543Z" fill="#FFFDFA"/>
<path d="M72.8039 4.45394H69.3818V1.6521H79.5964V4.43651H76.1973V22.9275H72.8097L72.8039 4.45394Z" fill="#FFFDFA"/>
</svg>
